<?xml version="1.0" standalone="no"?><!DOCTYPE svg PUBLIC "-//W3C//DTD SVG 1.1//EN" "http://www.w3.org/Graphics/SVG/1.1/DTD/svg11.dtd"><svg fill="#555" t="1552981184718" class="icon" style="" viewBox="0 0 1024 1024" version="1.1" xmlns="http://www.w3.org/2000/svg" p-id="4849" xmlns:xlink="http://www.w3.org/1999/xlink" width="200" height="200"><defs><style type="text/css"></style></defs><path d="M256 768a25.7024 25.7024 0 0 1-18.1248-7.4752l-204.8-204.8a25.6 25.6 0 0 1 0-36.1984l204.8-204.8a25.6 25.6 0 0 1 36.1984 36.1984L87.3984 537.6l186.6752 186.6752a25.6 25.6 0 0 1-18.1248 43.6736zM768 768a25.6 25.6 0 0 1-18.1248-43.6736l186.6752-186.6752-186.6752-186.6752a25.6 25.6 0 0 1 36.1984-36.1984l204.8 204.8a25.6 25.6 0 0 1 0 36.1984l-204.8 204.8a25.4976 25.4976 0 0 1-18.1248 7.4752zM384 768a25.6 25.6 0 0 1-21.7088-39.168l256-409.6a25.6 25.6 0 0 1 43.4176 27.136l-256 409.6A25.6 25.6 0 0 1 384 768z" fill="#fff" p-id="4850"></path></svg>