<?xml version="1.0" standalone="no"?><!DOCTYPE svg PUBLIC "-//W3C//DTD SVG 1.1//EN" "http://www.w3.org/Graphics/SVG/1.1/DTD/svg11.dtd"><svg t="1552979994263" class="icon" style="" viewBox="0 0 1024 1024" version="1.1" xmlns="http://www.w3.org/2000/svg" p-id="3114" xmlns:xlink="http://www.w3.org/1999/xlink" width="200" height="200"><defs><style type="text/css"></style></defs><path d="M512.1024 963.26144c-96.2048 0-189.30176-30.80192-267.70432-89.4976-95.69792-71.7056-157.9008-176.50176-174.7968-294.90176-16.9984-118.5024 13.19936-236.40064 84.89984-332.20096 148.10112-197.80096 429.39904-238.10048 627.0976-90.10176 82.90304 62.10048 142.0032 151.6032 166.6048 252.00128a31.98464 31.98464 0 0 1-23.5008 38.69696c-17.2032 4.10112-34.50368-6.2976-38.7072-23.5008-20.992-85.99552-71.69536-162.79552-142.7968-215.99744-169.40032-126.8992-410.5984-92.29824-537.4976 77.19936-61.50144 82.0992-87.30112 183.19872-72.704 284.70272 14.60224 101.49888 67.80416 191.29856 149.90336 252.6976 169.4976 127.0016 410.7008 92.40064 537.6-77.09696 33.19808-44.40064 55.99744-94.1056 67.59936-147.80416 3.79904-17.29536 20.89984-28.29824 38.00064-24.4992 17.30048 3.70176 28.29824 20.80256 24.4992 38.00064-13.70112 62.80192-40.20224 120.80128-79.0016 172.6976-71.70048 95.70304-176.49664 157.9008-294.99904 174.80192-21.49888 3.3024-43.10016 4.80256-64.49664 4.80256z" fill="#8a8a8a" p-id="3115"></path><path d="M307.2 506.88m-51.2 0a51.2 51.2 0 1 0 102.4 0 51.2 51.2 0 1 0-102.4 0Z" fill="#8a8a8a" p-id="3116"></path><path d="M501.76 506.88m-51.2 0a51.2 51.2 0 1 0 102.4 0 51.2 51.2 0 1 0-102.4 0Z" fill="#8a8a8a" p-id="3117"></path><path d="M696.32 506.88m-51.2 0a51.2 51.2 0 1 0 102.4 0 51.2 51.2 0 1 0-102.4 0Z" fill="#8a8a8a" p-id="3118"></path></svg>