<?xml version="1.0" standalone="no"?><!DOCTYPE svg PUBLIC "-//W3C//DTD SVG 1.1//EN" "http://www.w3.org/Graphics/SVG/1.1/DTD/svg11.dtd"><svg fill="#555" t="1552981266753" class="icon" style="" viewBox="0 0 1024 1024" version="1.1" xmlns="http://www.w3.org/2000/svg" p-id="4997" xmlns:xlink="http://www.w3.org/1999/xlink" width="200" height="200"><defs><style type="text/css"></style></defs><path d="M390.105301 589.429487l235.976456 0c41.46846 0 75.086116-36.401048 75.086116-81.309864 0-44.898583-33.617655-81.302701-75.086116-81.302701L390.105301 426.816922c-41.466414 0-75.084069 36.404118-75.084069 81.302701C315.021232 553.028439 348.638887 589.429487 390.105301 589.429487zM390.688585 475.5396l234.811934 0c17.679661 0 32.019251 14.334473 32.019251 32.023344 0 17.679661-14.33959 32.014134-32.019251 32.014134L390.688585 539.577079c-17.684778 0-32.021298-14.334473-32.021298-32.014134C358.667288 489.874073 373.003807 475.5396 390.688585 475.5396zM913.678894 91.372034 102.509187 91.372034c-11.788487 0-21.347191 10.338463-21.347191 23.093974l0 207.834512c0 12.753465 9.558703 23.093974 21.347191 23.093974l9.17701 0c-0.022513 0.39295-0.061398 0.782829-0.061398 1.180895l0 556.776809c0 11.83249 9.862625 21.422915 22.027689 21.422915l748.882082 0c12.165064 0 22.026666-9.589402 22.026666-21.422915L904.561235 346.576413c0-0.399089-0.038886-0.787946-0.061398-1.180895l9.179057 0c11.788487 0 21.342074-10.340509 21.342074-23.093974L935.020968 114.467031C935.021991 101.710496 925.467381 91.372034 913.678894 91.372034zM849.636299 881.116779 166.549735 881.116779l0-533.654182 683.086563 0L849.636299 881.116779zM892.326587 294.604738 123.854331 294.604738 123.854331 145.17952l768.472256 0L892.326587 294.604738z" p-id="4998"></path></svg>