<?xml version="1.0" standalone="no"?><!DOCTYPE svg PUBLIC "-//W3C//DTD SVG 1.1//EN" "http://www.w3.org/Graphics/SVG/1.1/DTD/svg11.dtd"><svg fill="#555" t="1552982143980" class="icon" style="" viewBox="0 0 1024 1024" version="1.1" xmlns="http://www.w3.org/2000/svg" p-id="6594" xmlns:xlink="http://www.w3.org/1999/xlink" width="200" height="200"><defs><style type="text/css"></style></defs><path d="M519.662933 955.7504L518.8608 955.733333h-13.2096c-53.333333-0.597333-103.850667-9.6768-150.408533-27.050666C325.870933 946.6368 292.522667 955.733333 256 955.733333c-29.184 0-56.6272-6.024533-81.5616-17.8688a187.050667 187.050667 0 0 1-50.824533-36.625066 191.146667 191.146667 0 0 1-39.304534-56.2176C73.6768 821.896533 68.266667 795.972267 68.266667 768c0-36.539733 9.335467-69.376 27.7504-97.792C77.602133 621.2608 68.266667 568.081067 68.266667 512c0-81.646933 19.677867-156.3136 58.5216-221.986133 0.631467-1.604267 1.4848-3.140267 2.542933-4.5568l1.774933-2.952534 0.3584-0.597333c17.749333-29.44 40.106667-57.7536 66.389334-84.053333 32.9728-32.955733 69.102933-59.818667 107.4176-79.872C365.329067 86.203733 432.776533 69.461333 505.7024 68.266667H519.970133c72.3968 1.1776 139.3152 17.937067 198.929067 49.800533 37.6832 20.0192 73.506133 46.882133 106.410667 79.786667a473.565867 473.565867 0 0 1 66.901333 83.5072l0.6144 0.9728 2.4576 4.130133C935.389867 353.143467 955.733333 429.038933 955.733333 512c0 82.397867-20.053333 157.696-59.579733 223.7952a169.7792 169.7792 0 0 0-3.089067 5.410133 449.9456 449.9456 0 0 1-67.8912 84.189867c-83.882667 84.462933-186.350933 128.3584-304.418133 130.304-0.392533 0-0.7168 0.0512-1.092267 0.0512zM128.887467 682.615467C111.069867 707.1232 102.4 735.044267 102.4 768c0 23.005867 4.352 44.151467 12.9536 62.839467a157.218133 157.218133 0 0 0 32.392533 46.250666c12.8 12.8 26.7264 22.903467 41.437867 30.0032 20.224 9.608533 42.734933 14.506667 66.816 14.506667 32.648533 0 62.071467-8.721067 87.4496-25.9072a186.538667 186.538667 0 0 0 21.6576-18.602667l8.8576-8.8576C397.943467 839.458133 409.6 806.656 409.6 768c0-10.837333-0.887467-21.1968-2.6624-30.8224l-1.194667-5.546667c-6.058667-26.794667-19.746133-50.978133-40.635733-71.8848-27.392-27.392-58.453333-41.966933-94.941867-44.544h-0.034133l-0.6656-0.0512A127.658667 127.658667 0 0 0 256 614.4c-42.871467 0-78.2336 14.7968-108.1344 45.243733a105.1648 105.1648 0 0 0-18.141867 21.76l-0.238933 0.3584a12.305067 12.305067 0 0 1-0.597333 0.853334z m280.354133 195.7376c26.538667 24.866133 55.022933 38.843733 86.545067 42.427733V750.933333h-52.701867c0.426667 5.5808 0.648533 11.281067 0.648533 17.066667 0 41.181867-11.588267 78.2336-34.491733 110.353067z m120.6784-127.453867v169.796267c53.316267-6.792533 100.829867-45.7728 141.380267-116.002134a496.0768 496.0768 0 0 0 26.7776-54.152533l-168.157867 0.3584z m205.056-0.426667a538.709333 538.709333 0 0 1-34.0992 71.2704c-19.029333 32.9728-39.7312 59.938133-61.969067 80.7936 60.074667-19.3024 114.363733-53.162667 162.2016-101.341866a430.592 430.592 0 0 0 44.6464-51.012267l-110.779733 0.290133zM437.213867 716.8h58.5728V529.066667H283.511467c0.426667 18.176 1.518933 36.130133 3.293866 53.6576 38.621867 5.717333 73.028267 23.466667 102.434134 52.906666 23.637333 23.6032 39.748267 50.8928 47.9744 81.169067z m92.706133-187.733333v187.6992l181.009067-0.3584c18.773333-55.808 28.9792-118.7328 30.429866-187.3408H529.92z m245.589333 0c-1.3824 67.908267-11.008 130.730667-28.672 187.2384l121.344-0.3072c32.750933-55.671467 50.568533-118.4256 53.077334-186.9312h-145.749334zM102.724267 529.066667a414.702933 414.702933 0 0 0 18.312533 109.0048c1.006933-0.989867 2.030933-1.9456 3.054933-2.901334 34.696533-35.362133 77.994667-53.998933 128.187734-54.869333a727.0912 727.0912 0 0 1-2.901334-51.234133H102.724267z m672.785066-34.133334h145.7664c-2.5088-68.369067-20.2752-131.157333-52.906666-186.88H747.178667c17.4592 56.661333 26.965333 119.364267 28.330666 186.88z m-245.589333 0h211.456c-1.4336-68.113067-11.52-130.8672-30.020267-186.88H529.92V494.933333z m-246.442667 0h212.309334V308.053333H312.951467c-18.176 55.671467-28.074667 118.442667-29.474134 186.88zM102.724267 494.933333h146.619733c1.3312-67.805867 10.666667-130.5088 27.835733-186.88H155.767467C123.050667 363.656533 105.233067 426.427733 102.724267 494.933333z m208.0256-186.333866z m424.362666-34.679467h110.7968a452.0448 452.0448 0 0 0-44.7488-51.933867c-30.5152-30.5152-63.607467-55.3472-98.338133-73.796266a377.019733 377.019733 0 0 0-62.941867-26.589867c21.879467 20.394667 42.376533 47.240533 61.013334 79.854933a510.532267 510.532267 0 0 1 34.218666 72.465067z m-205.192533 0h168.4992a472.064 472.064 0 0 0-27.136-55.5008c-17.237333-30.173867-35.9424-54.6304-55.637333-72.738133-26.9824-24.644267-55.1424-38.587733-85.725867-42.376534v170.615467z m-204.3392 0h170.205867v-170.666667c-31.522133 3.720533-59.921067 17.646933-86.510934 42.359467-20.360533 18.2272-39.304533 42.632533-56.5248 72.772267a468.8896 468.8896 0 0 0-27.170133 55.534933z m-147.950933 0h111.2576a508.689067 508.689067 0 0 1 34.235733-72.4992c18.705067-32.699733 39.5264-59.5968 61.934933-79.9232-22.1696 6.997333-43.502933 15.906133-63.8976 26.692267-35.328 18.4832-68.6592 43.298133-99.1744 73.7792-16.5376 16.5888-31.402667 33.962667-44.356266 51.950933z" p-id="6595"></path><path d="M85.333333 972.8a34.133333 34.133333 0 0 1-23.517866-58.88l17.066666-16.213333a34.133333 34.133333 0 1 1 47.018667 49.493333l-17.066667 16.213333c-6.587733 6.263467-15.0528 9.386667-23.5008 9.386667z" p-id="6596"></path><path d="M111.547733 865.024l48.264534 48.2816-33.28 33.28-48.264534-48.2816z" p-id="6597"></path></svg>